<svg id="color_line" height="512" viewBox="0 0 74 74" width="512" xmlns="http://www.w3.org/2000/svg" data-name="color line"><g fill="#323c6b"><path d="m11.74 21.49a5.786 5.786 0 0 1 -5.779-5.779v-7.432a5.779 5.779 0 0 1 11.559 0v7.432a5.786 5.786 0 0 1 -5.78 5.779zm0-17.99a4.784 4.784 0 0 0 -4.779 4.779v7.432a4.779 4.779 0 0 0 9.559 0v-7.432a4.784 4.784 0 0 0 -4.78-4.779z"/><path d="m23.779 21.49a.5.5 0 0 1 -.5-.5v-17.99a.5.5 0 0 1 1 0v17.99a.5.5 0 0 1 -.5.5z"/><path d="m58.022 21.49a.5.5 0 0 1 -.5-.5v-17.99a.5.5 0 0 1 1 0v17.99a.5.5 0 0 1 -.5.5z"/><path d="m58.022 46.981a.5.5 0 0 1 -.5-.5v-17.99a.5.5 0 0 1 1 0v17.99a.5.5 0 0 1 -.5.5z"/><path d="m67.539 21.49a.5.5 0 0 1 -.5-.5v-17.99a.5.5 0 0 1 1 0v17.99a.5.5 0 0 1 -.5.5z"/><path d="m36.144 21.49a5.786 5.786 0 0 1 -5.779-5.779v-7.432a5.779 5.779 0 1 1 11.558 0v7.432a5.785 5.785 0 0 1 -5.779 5.779zm0-17.99a4.784 4.784 0 0 0 -4.779 4.779v7.432a4.779 4.779 0 1 0 9.558 0v-7.432a4.784 4.784 0 0 0 -4.779-4.779z"/><path d="m48.507 21.49a.5.5 0 0 1 -.5-.5v-17.99a.5.5 0 0 1 1 0v17.99a.5.5 0 0 1 -.5.5z"/><path d="m45.867 46.981a5.785 5.785 0 0 1 -5.778-5.781v-7.43a5.779 5.779 0 1 1 11.558 0v7.43a5.786 5.786 0 0 1 -5.78 5.781zm0-17.99a4.784 4.784 0 0 0 -4.778 4.779v7.43a4.779 4.779 0 1 0 9.558 0v-7.43a4.784 4.784 0 0 0 -4.78-4.779z"/><path d="m19.427 46.981a.5.5 0 0 1 -.5-.5v-17.99a.5.5 0 0 1 1 0v17.99a.5.5 0 0 1 -.5.5z"/><path d="m6.461 46.981a.5.5 0 0 1 -.5-.5v-17.99a.5.5 0 0 1 1 0v17.99a.5.5 0 0 1 -.5.5z"/><path d="m6.461 71.5a.5.5 0 0 1 -.5-.5v-17.99a.5.5 0 0 1 1 0v17.99a.5.5 0 0 1 -.5.5z"/><path d="m67.539 46.981a.5.5 0 0 1 -.5-.5v-17.99a.5.5 0 0 1 1 0v17.99a.5.5 0 0 1 -.5.5z"/><path d="m32.393 46.981a.5.5 0 0 1 -.5-.5v-17.99a.5.5 0 1 1 1 0v17.99a.5.5 0 0 1 -.5.5z"/><path d="m19.427 71.5a.5.5 0 0 1 -.5-.5v-17.99a.5.5 0 0 1 1 0v17.99a.5.5 0 0 1 -.5.5z"/><path d="m36.144 71.5a5.786 5.786 0 0 1 -5.779-5.779v-7.432a5.779 5.779 0 1 1 11.558 0v7.432a5.785 5.785 0 0 1 -5.779 5.779zm0-17.99a4.784 4.784 0 0 0 -4.779 4.779v7.432a4.779 4.779 0 1 0 9.558 0v-7.432a4.784 4.784 0 0 0 -4.779-4.779z"/><path d="m62.26 71.5a5.786 5.786 0 0 1 -5.779-5.779v-7.432a5.779 5.779 0 0 1 11.559 0v7.432a5.786 5.786 0 0 1 -5.78 5.779zm0-17.99a4.784 4.784 0 0 0 -4.779 4.779v7.432a4.779 4.779 0 0 0 9.559 0v-7.432a4.784 4.784 0 0 0 -4.78-4.779z"/><path d="m48.507 71.5a.5.5 0 0 1 -.5-.5v-17.99a.5.5 0 0 1 1 0v17.99a.5.5 0 0 1 -.5.5z"/></g></svg>