<svg id="shapes" enable-background="new 0 0 300 300" height="512" viewBox="0 0 300 300" width="512" xmlns="http://www.w3.org/2000/svg" xmlns:xlink="http://www.w3.org/1999/xlink"><linearGradient id="SVGID_1_" gradientUnits="userSpaceOnUse" x1="79.037" x2="253.174" y1="256.623" y2="82.486"><stop offset="0" stop-color="#107eff"/><stop offset="1" stop-color="#8f16ff"/></linearGradient><g><path d="m240 107.929c8.824 0 16-7.178 16-16s-7.176-16-16-16-16 7.178-16 16 7.176 16 16 16zm0-24c4.41 0 8 3.588 8 8s-3.59 8-8 8-8-3.588-8-8 3.59-8 8-8zm-169.445 37.42c-1.625-1.494-1.734-4.023-.238-5.65 4.426-4.822 10.465-7.578 16.996-7.76 2.273-.096 4.051 1.678 4.113 3.887.059 2.209-1.68 4.049-3.887 4.109-4.355.121-8.379 1.959-11.332 5.174-.789.859-1.867 1.295-2.945 1.295-.969 0-1.938-.348-2.707-1.055zm35.469 20.147c1.707 1.4 1.961 3.92.559 5.629-4.094 4.996-10.117 8.174-16.527 8.719-.117.01-.23.014-.344.014-2.059 0-3.805-1.576-3.98-3.662-.188-2.201 1.445-4.137 3.645-4.324 4.336-.367 8.246-2.434 11.02-5.816 1.392-1.705 3.916-1.965 5.627-.56zm-1.297-26.778c4.691 4.561 7.273 10.672 7.273 17.211 0 2.209-1.789 4-4 4s-4-1.791-4-4c0-4.359-1.723-8.434-4.852-11.477-1.582-1.539-1.617-4.072-.078-5.656 1.54-1.582 4.071-1.619 5.657-.078zm-27.203 29.305c1.668 1.445 1.848 3.973.402 5.641-.793.914-1.906 1.381-3.023 1.381-.93 0-1.863-.322-2.621-.977-4.949-4.293-7.879-10.248-8.242-16.771-.125-2.207 1.562-4.094 3.77-4.219 2.164-.125 4.094 1.564 4.215 3.77.245 4.343 2.198 8.312 5.499 11.175zm178.476 11.906h-46.368l-64.175-110.015c-1.438-2.457-5.477-2.457-6.914 0l-28.128 48.221c-6.574-3.915-14.223-6.206-22.415-6.206-24.262 0-44 19.738-44 44 0 16.298 8.929 30.523 22.131 38.126l-25.588 43.858c-.719 1.236-.727 2.766-.012 4.008s2.035 2.008 3.469 2.008h98c2.211 0 4-1.791 4-4s-1.789-4-4-4h-91.035l22.476-38.527c4.565 1.608 9.451 2.527 14.559 2.527 24.262 0 44-19.738 44-44 0-13.184-5.858-25.001-15.074-33.073l25.074-42.987 58.366 100.061h-36.366c-2.211 0-4 1.791-4 4v92c0 2.209 1.789 4 4 4h92c2.211 0 4-1.791 4-4v-92c0-2.21-1.789-4.001-4-4.001zm-132-24c0 19.85-16.148 36-36 36s-36-16.15-36-36 16.148-36 36-36 36 16.151 36 36zm44 116v-84h84zm41.471-186c0-2.502 2.028-4.53 4.53-4.53s4.53 2.028 4.53 4.53c0 2.501-2.028 4.529-4.53 4.529s-4.53-2.027-4.53-4.529z" fill="url(#SVGID_1_)"/></g></svg>