<svg id="triangle" enable-background="new 0 0 300 300" height="512" viewBox="0 0 300 300" width="512" xmlns="http://www.w3.org/2000/svg" xmlns:xlink="http://www.w3.org/1999/xlink"><linearGradient id="SVGID_1_" gradientUnits="userSpaceOnUse" x1="20.171" x2="216.308" y1="223.828" y2="27.691"><stop offset="0" stop-color="#107eff"/><stop offset="1" stop-color="#8f16ff"/></linearGradient><g><path d="m232 50c-8.824 0-16 7.178-16 16s7.176 16 16 16 16-7.178 16-16-7.176-16-16-16zm0 24c-4.41 0-8-3.588-8-8s3.59-8 8-8 8 3.588 8 8-3.59 8-8 8zm-38.53-10c0-2.502 2.028-4.53 4.53-4.53s4.53 2.028 4.53 4.53c0 2.501-2.028 4.529-4.53 4.529s-4.53-2.028-4.53-4.529zm40.53 36.529c-2.501 0-4.53-2.028-4.53-4.529 0-2.502 2.028-4.53 4.53-4.53s4.53 2.028 4.53 4.53c0 2.501-2.029 4.529-4.53 4.529zm4 46.008-180-104c-1.234-.715-2.758-.717-4-.002-1.238.715-2 2.035-2 3.465v208c0 1.43.762 2.75 2 3.465.621.357 1.309.535 2 .535s1.383-.18 2-.537l180-104c1.238-.715 2-2.035 2-3.463s-.762-2.748-2-3.463zm-118.777 3.463-59.223 90.573v-181.146zm6.941 4h94.917l-152.545 88.136z" fill="url(#SVGID_1_)"/></g></svg>