<svg id="Capa_1" enable-background="new 0 0 512 512" height="512" viewBox="0 0 512 512" width="512" xmlns="http://www.w3.org/2000/svg" xmlns:xlink="http://www.w3.org/1999/xlink"><linearGradient id="SVGID_1_" gradientUnits="userSpaceOnUse" x1="316" x2="316" y1="512" y2="0"><stop offset="0" stop-color="#ffe59a"/><stop offset="1" stop-color="#ffffd5"/></linearGradient><linearGradient id="SVGID_2_" gradientUnits="userSpaceOnUse" x1="256" x2="256" y1="512" y2="92"><stop offset="0" stop-color="#fd5900"/><stop offset="1" stop-color="#ffde00"/></linearGradient><g><g><g><path d="m285 0h-120c-8.291 0-15 6.709-15 15s6.709 15 15 15h45v77c0 8.291 6.709 15 15 15s15-6.709 15-15v-77h45c8.291 0 15-6.709 15-15s-6.709-15-15-15zm182 302c-8.291 0-15 6.709-15 15v180c0 8.291 6.709 15 15 15s15-6.709 15-15v-180c0-8.291-6.709-15-15-15z" fill="url(#SVGID_1_)"/></g></g><g><g><path d="m264.521 115.467c-7.91-14.473-23.056-23.467-39.521-23.467s-31.611 8.994-39.521 23.481l-180.03 330.015c-3.574 6.577-5.449 14.004-5.449 21.504 0 24.814 20.186 45 45 45h270c24.814 0 45-20.186 45-45s-20.186-45-45-45h-194.18l104.18-191.016 70.488 129.243c5.771 10.562 15.293 18.252 26.836 21.636 11.572 3.354 23.73 2.051 34.277-3.706 21.768-11.909 29.795-39.287 17.9-61.025zm202.479-23.467c-24.814 0-45 20.186-45 45v150c0 24.814 20.186 45 45 45s45-20.186 45-45v-150c0-24.814-20.186-45-45-45z" fill="url(#SVGID_2_)"/></g></g></g></svg>