<svg height="512" viewBox="0 0 512 512" width="512" xmlns="http://www.w3.org/2000/svg"><path d="m496 312v32a16 16 0 0 1 -16 16h-448a16 16 0 0 1 -16-16v-32z" fill="#e0e0e2"/><path d="m496 120v192h-480v-192a16 16 0 0 1 16-16h448a16 16 0 0 1 16 16z" fill="#1a6fb0"/><path d="m304 392h-96l8-32h80z" fill="#57565c"/><g fill="#e0e0e2"><path d="m176 392h160v24h-160z"/><path d="m297 144h96a24 24 0 0 1 24 24 24 24 0 0 1 -24 24h-96a0 0 0 0 1 0 0v-48a0 0 0 0 1 0 0z"/><path d="m297 224h96a24 24 0 0 1 24 24 24 24 0 0 1 -24 24h-96a0 0 0 0 1 0 0v-48a0 0 0 0 1 0 0z"/></g><path d="m96 143h144v48h-144z" fill="#ff5023"/><circle cx="297" cy="168" fill="#ffda44" r="24"/><circle cx="297" cy="248" fill="#ffda44" r="24"/><path d="m480 96h-448a24.032 24.032 0 0 0 -24 24v224a24.032 24.032 0 0 0 24 24h173.76l-4 16h-25.76a8 8 0 0 0 -8 8v24a8 8 0 0 0 8 8h160a8 8 0 0 0 8-8v-24a8 8 0 0 0 -8-8h-25.75l-4-16h173.75a24.032 24.032 0 0 0 24-24v-224a24.032 24.032 0 0 0 -24-24zm-456 24a8.011 8.011 0 0 1 8-8h448a8.011 8.011 0 0 1 8 8v184h-464zm304 288h-144v-8h144zm-34.25-24h-75.5l4-16h67.5zm194.25-40a8.011 8.011 0 0 1 -8 8h-448a8.011 8.011 0 0 1 -8-8v-24h464z"/><path d="m56 344h40a8 8 0 0 0 0-16h-40a8 8 0 0 0 0 16z"/><path d="m120 344h8a8 8 0 0 0 0-16h-8a8 8 0 0 0 0 16z"/><path d="m393 136h-96c-.14 0-.28 0-.41.01a31.993 31.993 0 0 0 0 63.98c.13.01.27.01.41.01h96a32 32 0 0 0 0-64zm-104 45.84a15.895 15.895 0 1 1 8 2.16 15.974 15.974 0 0 1 -8-2.16zm104 2.16h-68.3a31.917 31.917 0 0 0 0-32h68.3a16 16 0 0 1 0 32z"/><path d="m393 216h-96c-.14 0-.28 0-.41.01a31.993 31.993 0 0 0 0 63.98c.13.01.27.01.41.01h96a32 32 0 0 0 0-64zm-104 45.84a15.895 15.895 0 1 1 8 2.16 15.974 15.974 0 0 1 -8-2.16zm104 2.16h-68.3a31.917 31.917 0 0 0 0-32h68.3a16 16 0 0 1 0 32z"/><path d="m240 216h-144a8 8 0 0 0 0 16h144a8 8 0 0 0 0-16z"/><path d="m160 264h-64a8 8 0 0 0 0 16h64a8 8 0 0 0 0-16z"/><path d="m176 240h-80a8 8 0 0 0 0 16h80a8 8 0 0 0 0-16z"/><path d="m208 240h-8a8 8 0 0 0 0 16h8a8 8 0 0 0 0-16z"/><path d="m240 135h-144a8 8 0 0 0 -8 8v48a8 8 0 0 0 8 8h144a8 8 0 0 0 8-8v-48a8 8 0 0 0 -8-8zm-8 48h-128v-32h128z"/></svg>