<?xml version="1.0" encoding="iso-8859-1"?>
<!-- Generator: Adobe Illustrator 21.0.0, SVG Export Plug-In . SVG Version: 6.00 Build 0)  -->
<svg version="1.1" id="Capa_1" xmlns="http://www.w3.org/2000/svg" xmlns:xlink="http://www.w3.org/1999/xlink" x="0px" y="0px"
	 viewBox="0 0 587.697 587.697" style="enable-background:new 0 0 587.697 587.697;" xml:space="preserve">
<g>
	<g>
		<g id="flat_29_">
			<path style="fill:#4398D1;" d="M395.175,587.697h-30.398c-7.427-11.197-22.515-14.247-33.711-6.819
				c-2.705,1.793-5.026,4.114-6.819,6.819h-50.663c-27.976,0-50.664-22.687-50.664-50.664l0,0c0-27.976,22.687-50.663,50.664-50.663
				h121.592V587.697z"/>
			<polygon style="fill:#C1C7C9;" points="395.175,557.298 506.635,557.298 547.166,567.431 587.697,557.298 587.697,516.768 
				547.166,506.635 506.635,516.768 395.175,516.768 			"/>
			<path style="fill:#3E8CC7;" d="M395.175,486.37H273.583c-27.976,0-50.664,22.687-50.664,50.663
				c0,27.976,22.687,50.664,50.664,50.664h50.663c6.384-9.545,18.594-13.284,29.233-8.967l41.696-41.696V486.37z"/>
			<polygon style="fill:#3269A1;" points="354.644,0 300.08,16.364 338.28,54.565 			"/>
			<polygon style="fill:#FDA72F;" points="300.08,16.364 253.317,30.398 324.246,101.327 338.28,54.565 			"/>
			
				<rect x="-10.272" y="139.58" transform="matrix(0.7071 -0.7071 0.7071 0.7071 -71.173 157.489)" style="fill:#4398D1;" width="329.583" height="50.156"/>
			
				<rect x="25.201" y="175.042" transform="matrix(0.7071 -0.7071 0.7071 0.7071 -85.859 192.9586)" style="fill:#3E8CC7;" width="329.583" height="50.156"/>
			<path style="fill:#C1C7C9;" d="M314.114,303.981V263.45c0-5.593,4.539-10.133,10.133-10.133h50.663
				c-11.46-24.693-36.204-40.5-63.431-40.531c-23.194-0.01-44.928,11.349-58.162,30.398H60.796v81.062h192.521
				c13.233,19.049,34.968,30.408,58.162,30.398c27.227-0.03,51.971-15.837,63.431-40.531h-50.663
				C318.653,314.114,314.114,309.574,314.114,303.981z"/>
			<rect x="141.858" y="273.583" style="fill:#B8BDBF;" width="111.46" height="20.265"/>
			
				<rect x="234.213" y="350.085" transform="matrix(0.7071 -0.7071 0.7071 0.7071 -159.8476 414.5658)" style="fill:#FDA72F;" width="372.576" height="100.303"/>
			
				<rect x="259.546" y="411.244" transform="matrix(0.7071 -0.7071 0.7071 0.7071 -170.3427 439.899)" style="fill:#FF9945;" width="372.576" height="28.655"/>
			<path style="fill:#E34B87;" d="M354.644,508.884L354.644,508.884c0,43.53-35.282,78.812-78.812,78.812l0,0
				c-20.904,0-40.946-8.299-55.73-23.082l-197.02-197.02C8.299,352.81,0,332.768,0,311.864l0,0c0-43.53,35.282-78.812,78.812-78.812
				l0,0c20.904,0,40.946,8.299,55.73,23.082l197.02,197.02C346.346,467.938,354.644,487.981,354.644,508.884z"/>
			<path style="fill:#F285B0;" d="M50.663,311.864H30.398c0-7.954,1.966-15.787,5.715-22.809l17.864,9.586
				C51.788,302.704,50.643,307.254,50.663,311.864z"/>
			<path style="fill:#F285B0;" d="M94.163,395.692l-49.579-49.589c-1.783-1.783-3.435-3.698-4.924-5.735l16.354-11.977
				c0.882,1.206,1.854,2.341,2.908,3.394l49.569,49.579L94.163,395.692z"/>
			
				<rect x="491.435" y="257.16" transform="matrix(0.7071 -0.7071 0.7071 0.7071 -50.1338 436.2779)" style="fill:#3269A1;" width="20.265" height="42.993"/>
			
				<rect x="455.963" y="289.653" transform="matrix(0.7071 -0.7071 0.7071 0.7071 -78.4306 418.6136)" style="fill:#3269A1;" width="20.265" height="28.655"/>
			
				<rect x="430.636" y="317.956" transform="matrix(0.7071 -0.7071 0.7071 0.7071 -110.9306 411.0939)" style="fill:#3269A1;" width="20.265" height="42.993"/>
			
				<rect x="395.172" y="350.447" transform="matrix(0.7071 -0.7071 0.7071 0.7071 -139.2232 393.4337)" style="fill:#3269A1;" width="20.265" height="28.655"/>
			
				<rect x="369.838" y="378.752" transform="matrix(0.7071 -0.7071 0.7071 0.7071 -171.7274 385.9099)" style="fill:#3269A1;" width="20.265" height="42.993"/>
			<path style="fill:#D94881;" d="M331.562,453.155l-197.02-197.02c-14.784-14.784-34.826-23.082-55.73-23.082l0,0
				c-5.107,0.01-10.193,0.507-15.199,1.49c15.351,3.02,29.466,10.528,40.531,21.593l197.02,197.02
				c30.773,30.773,30.783,80.666,0.01,111.439c-11.065,11.075-25.18,18.594-40.541,21.613c5.006,0.983,10.092,1.479,15.199,1.49l0,0
				c43.53,0,78.812-35.282,78.812-78.812C354.644,487.981,346.346,467.938,331.562,453.155z"/>
			<polygon style="fill:#B8BDBF;" points="395.175,516.768 395.175,557.298 435.706,516.768 			"/>
		</g>
	</g>
</g>
<g>
</g>
<g>
</g>
<g>
</g>
<g>
</g>
<g>
</g>
<g>
</g>
<g>
</g>
<g>
</g>
<g>
</g>
<g>
</g>
<g>
</g>
<g>
</g>
<g>
</g>
<g>
</g>
<g>
</g>
</svg>
