<svg id="Color" enable-background="new 0 0 24 24" height="512" viewBox="0 0 24 24" width="512" xmlns="http://www.w3.org/2000/svg"><path d="m18.733.733c-.453.452-.733 1.077-.733 1.767 0 1.38 1.12 2.5 2.5 2.5.42 0 .819-.1 1.16-.28l1.06 1.06c.146.147.338.22.53.22s.384-.073.53-.22l-2.574-2.574c-.181.181-.431.294-.706.294-.55 0-1-.45-1-1 0-.275.113-.525.294-.706z" fill="#0393d4"/><path d="m22.72 3.66c.18-.34.28-.74.28-1.16 0-1.38-1.12-2.5-2.5-2.5s-2.5 1.12-2.5 2.5 1.12 2.5 2.5 2.5c.42 0 .82-.1 1.16-.28l1.06 1.06c.146.147.338.22.53.22s.384-.073.53-.22c.293-.293.293-.768 0-1.061zm-3.22-1.16c0-.55.45-1 1-1s1 .45 1 1-.45 1-1 1-1-.45-1-1z" fill="#03a9f4"/><path d="m18.733.733c-.453.452-.733 1.077-.733 1.767 0 1.38 1.12 2.5 2.5 2.5.42 0 .819-.1 1.16-.28l1.06 1.06c.146.147.338.22.53.22s.384-.073.53-.22l-2.574-2.574c-.181.181-.431.294-.706.294-.55 0-1-.45-1-1 0-.275.113-.525.294-.706z" fill="#0393d4"/><path d="m1.75 6h12.5c.965 0 1.75-.785 1.75-1.75v-2.5c0-.965-.785-1.75-1.75-1.75h-12.5c-.965 0-1.75.785-1.75 1.75v2.5c0 .965.785 1.75 1.75 1.75z" fill="#03a9f4"/><g><path d="m8 0h-6.25c-.965 0-1.75.785-1.75 1.75v2.5c0 .965.785 1.75 1.75 1.75h6.25z" fill="#0393d4"/></g><path d="m22.25 8h-12.5c-.96 0-1.75.79-1.75 1.75v12.5c0 .96.79 1.75 1.75 1.75h12.5c.96 0 1.75-.79 1.75-1.75v-12.5c0-.96-.79-1.75-1.75-1.75z" fill="#eceff1"/><g fill="#90a4ae"><circle cx="3" cy="20.5" r="3"/><path d="m.75 12.5h4.5c.414 0 .75-.336.75-.75s-.336-.75-.75-.75h-4.5c-.414 0-.75.336-.75.75s.336.75.75.75z"/><path d="m.75 9.5h4.5c.414 0 .75-.336.75-.75s-.336-.75-.75-.75h-4.5c-.414 0-.75.336-.75.75s.336.75.75.75z"/><path d="m.75 15.5h4.5c.414 0 .75-.336.75-.75s-.336-.75-.75-.75h-4.5c-.414 0-.75.336-.75.75s.336.75.75.75z"/></g><g fill="#7d8f97"><path d="m3 17.5c-1.654 0-3 1.346-3 3s1.346 3 3 3z"/><path d="m3 11h-2.25c-.414 0-.75.336-.75.75s.336.75.75.75h2.25z"/><path d="m3 8h-2.25c-.414 0-.75.336-.75.75s.336.75.75.75h2.25z"/><path d="m3 14h-2.25c-.414 0-.75.336-.75.75s.336.75.75.75h2.25z"/></g><path d="m16 8h-6.25c-.96 0-1.75.79-1.75 1.75v12.5c0 .96.79 1.75 1.75 1.75h6.25z" fill="#cdd0d2"/><path d="m20 15.5c0 .28-.16.54-.42.67l-5.5 2.75c-.1.05-.22.08-.33.08-.14 0-.27-.04-.39-.11-.23-.14-.36-.38-.36-.64v-5.5c0-.26.13-.5.36-.64.22-.14.49-.15.72-.03l5.5 2.75c.26.13.42.39.42.67z" fill="#f44336"/><path d="m20 15.498h-7v2.752c0 .26.13.5.36.64.12.07.25.11.39.11.11 0 .23-.03.33-.08l5.5-2.75c.26-.13.42-.39.42-.67 0-.001 0-.001 0-.002z" fill="#d43a2f"/></svg>